<svg width="183" height="183" viewBox="0 0 183 183" fill="none" xmlns="http://www.w3.org/2000/svg">
<g id="Group 18">
<rect id="Rectangle 19" width="3" height="3" fill="#C4C4C4"/>
<rect id="Rectangle 20" x="20" width="3" height="3" fill="#C4C4C4"/>
<rect id="Rectangle 22" x="40" width="3" height="3" fill="#C4C4C4"/>
<rect id="Rectangle 23" x="60" width="3" height="3" fill="#C4C4C4"/>
<rect id="Rectangle 24" x="80" width="3" height="3" fill="#C4C4C4"/>
<rect id="Rectangle 25" x="100" width="3" height="3" fill="#C4C4C4"/>
<rect id="Rectangle 26" x="120" width="3" height="3" fill="#C4C4C4"/>
<rect id="Rectangle 27" x="140" width="3" height="3" fill="#C4C4C4"/>
<rect id="Rectangle 28" x="160" width="3" height="3" fill="#C4C4C4"/>
<rect id="Rectangle 29" x="180" width="3" height="3" fill="#C4C4C4"/>
<rect id="Rectangle 30" y="20" width="3" height="3" fill="#C4C4C4"/>
<rect id="Rectangle 31" x="20" y="20" width="3" height="3" fill="#C4C4C4"/>
<rect id="Rectangle 32" x="40" y="20" width="3" height="3" fill="#C4C4C4"/>
<rect id="Rectangle 33" x="60" y="20" width="3" height="3" fill="#C4C4C4"/>
<rect id="Rectangle 34" x="80" y="20" width="3" height="3" fill="#C4C4C4"/>
<rect id="Rectangle 35" x="100" y="20" width="3" height="3" fill="#C4C4C4"/>
<rect id="Rectangle 36" x="120" y="20" width="3" height="3" fill="#C4C4C4"/>
<rect id="Rectangle 37" x="140" y="20" width="3" height="3" fill="#C4C4C4"/>
<rect id="Rectangle 38" x="160" y="20" width="3" height="3" fill="#C4C4C4"/>
<rect id="Rectangle 39" x="180" y="20" width="3" height="3" fill="#C4C4C4"/>
<rect id="Rectangle 40" y="40" width="3" height="3" fill="#C4C4C4"/>
<rect id="Rectangle 41" x="20" y="40" width="3" height="3" fill="#C4C4C4"/>
<rect id="Rectangle 42" x="40" y="40" width="3" height="3" fill="#C4C4C4"/>
<rect id="Rectangle 43" x="60" y="40" width="3" height="3" fill="#C4C4C4"/>
<rect id="Rectangle 44" x="80" y="40" width="3" height="3" fill="#C4C4C4"/>
<rect id="Rectangle 45" x="100" y="40" width="3" height="3" fill="#C4C4C4"/>
<rect id="Rectangle 46" x="120" y="40" width="3" height="3" fill="#C4C4C4"/>
<rect id="Rectangle 47" x="140" y="40" width="3" height="3" fill="#C4C4C4"/>
<rect id="Rectangle 48" x="160" y="40" width="3" height="3" fill="#C4C4C4"/>
<rect id="Rectangle 49" x="180" y="40" width="3" height="3" fill="#C4C4C4"/>
<rect id="Rectangle 50" y="60" width="3" height="3" fill="#C4C4C4"/>
<rect id="Rectangle 51" x="20" y="60" width="3" height="3" fill="#C4C4C4"/>
<rect id="Rectangle 52" x="40" y="60" width="3" height="3" fill="#C4C4C4"/>
<rect id="Rectangle 53" x="60" y="60" width="3" height="3" fill="#C4C4C4"/>
<rect id="Rectangle 54" x="80" y="60" width="3" height="3" fill="#C4C4C4"/>
<rect id="Rectangle 55" x="100" y="60" width="3" height="3" fill="#C4C4C4"/>
<rect id="Rectangle 56" x="120" y="60" width="3" height="3" fill="#C4C4C4"/>
<rect id="Rectangle 57" x="140" y="60" width="3" height="3" fill="#C4C4C4"/>
<rect id="Rectangle 58" x="160" y="60" width="3" height="3" fill="#C4C4C4"/>
<rect id="Rectangle 59" x="180" y="60" width="3" height="3" fill="#C4C4C4"/>
<rect id="Rectangle 60" y="80" width="3" height="3" fill="#C4C4C4"/>
<rect id="Rectangle 61" x="20" y="80" width="3" height="3" fill="#C4C4C4"/>
<rect id="Rectangle 62" x="40" y="80" width="3" height="3" fill="#C4C4C4"/>
<rect id="Rectangle 63" x="60" y="80" width="3" height="3" fill="#C4C4C4"/>
<rect id="Rectangle 64" x="80" y="80" width="3" height="3" fill="#C4C4C4"/>
<rect id="Rectangle 65" x="100" y="80" width="3" height="3" fill="#C4C4C4"/>
<rect id="Rectangle 66" x="120" y="80" width="3" height="3" fill="#C4C4C4"/>
<rect id="Rectangle 67" x="140" y="80" width="3" height="3" fill="#C4C4C4"/>
<rect id="Rectangle 68" x="160" y="80" width="3" height="3" fill="#C4C4C4"/>
<rect id="Rectangle 69" x="180" y="80" width="3" height="3" fill="#C4C4C4"/>
<rect id="Rectangle 70" y="100" width="3" height="3" fill="#C4C4C4"/>
<rect id="Rectangle 71" x="20" y="100" width="3" height="3" fill="#C4C4C4"/>
<rect id="Rectangle 72" x="40" y="100" width="3" height="3" fill="#C4C4C4"/>
<rect id="Rectangle 73" x="60" y="100" width="3" height="3" fill="#C4C4C4"/>
<rect id="Rectangle 74" x="80" y="100" width="3" height="3" fill="#C4C4C4"/>
<rect id="Rectangle 75" x="100" y="100" width="3" height="3" fill="#C4C4C4"/>
<rect id="Rectangle 76" x="120" y="100" width="3" height="3" fill="#C4C4C4"/>
<rect id="Rectangle 77" x="140" y="100" width="3" height="3" fill="#C4C4C4"/>
<rect id="Rectangle 78" x="160" y="100" width="3" height="3" fill="#C4C4C4"/>
<rect id="Rectangle 79" x="180" y="100" width="3" height="3" fill="#C4C4C4"/>
<rect id="Rectangle 80" y="120" width="3" height="3" fill="#C4C4C4"/>
<rect id="Rectangle 81" x="20" y="120" width="3" height="3" fill="#C4C4C4"/>
<rect id="Rectangle 82" x="40" y="120" width="3" height="3" fill="#C4C4C4"/>
<rect id="Rectangle 83" x="60" y="120" width="3" height="3" fill="#C4C4C4"/>
<rect id="Rectangle 84" x="80" y="120" width="3" height="3" fill="#C4C4C4"/>
<rect id="Rectangle 85" x="100" y="120" width="3" height="3" fill="#C4C4C4"/>
<rect id="Rectangle 86" x="120" y="120" width="3" height="3" fill="#C4C4C4"/>
<rect id="Rectangle 87" x="140" y="120" width="3" height="3" fill="#C4C4C4"/>
<rect id="Rectangle 88" x="160" y="120" width="3" height="3" fill="#C4C4C4"/>
<rect id="Rectangle 89" x="180" y="120" width="3" height="3" fill="#C4C4C4"/>
<rect id="Rectangle 90" y="140" width="3" height="3" fill="#C4C4C4"/>
<rect id="Rectangle 91" x="20" y="140" width="3" height="3" fill="#C4C4C4"/>
<rect id="Rectangle 92" x="40" y="140" width="3" height="3" fill="#C4C4C4"/>
<rect id="Rectangle 93" x="60" y="140" width="3" height="3" fill="#C4C4C4"/>
<rect id="Rectangle 94" x="80" y="140" width="3" height="3" fill="#C4C4C4"/>
<rect id="Rectangle 95" x="100" y="140" width="3" height="3" fill="#C4C4C4"/>
<rect id="Rectangle 96" x="120" y="140" width="3" height="3" fill="#C4C4C4"/>
<rect id="Rectangle 97" x="140" y="140" width="3" height="3" fill="#C4C4C4"/>
<rect id="Rectangle 98" x="160" y="140" width="3" height="3" fill="#C4C4C4"/>
<rect id="Rectangle 99" x="180" y="140" width="3" height="3" fill="#C4C4C4"/>
<rect id="Rectangle 100" y="160" width="3" height="3" fill="#C4C4C4"/>
<rect id="Rectangle 101" x="20" y="160" width="3" height="3" fill="#C4C4C4"/>
<rect id="Rectangle 102" x="40" y="160" width="3" height="3" fill="#C4C4C4"/>
<rect id="Rectangle 103" x="60" y="160" width="3" height="3" fill="#C4C4C4"/>
<rect id="Rectangle 104" x="80" y="160" width="3" height="3" fill="#C4C4C4"/>
<rect id="Rectangle 105" x="100" y="160" width="3" height="3" fill="#C4C4C4"/>
<rect id="Rectangle 106" x="120" y="160" width="3" height="3" fill="#C4C4C4"/>
<rect id="Rectangle 107" x="140" y="160" width="3" height="3" fill="#C4C4C4"/>
<rect id="Rectangle 108" x="160" y="160" width="3" height="3" fill="#C4C4C4"/>
<rect id="Rectangle 109" x="180" y="160" width="3" height="3" fill="#C4C4C4"/>
<rect id="Rectangle 110" y="180" width="3" height="3" fill="#C4C4C4"/>
<rect id="Rectangle 111" x="20" y="180" width="3" height="3" fill="#C4C4C4"/>
<rect id="Rectangle 112" x="40" y="180" width="3" height="3" fill="#C4C4C4"/>
<rect id="Rectangle 113" x="60" y="180" width="3" height="3" fill="#C4C4C4"/>
<rect id="Rectangle 114" x="80" y="180" width="3" height="3" fill="#C4C4C4"/>
<rect id="Rectangle 115" x="100" y="180" width="3" height="3" fill="#C4C4C4"/>
<rect id="Rectangle 116" x="120" y="180" width="3" height="3" fill="#C4C4C4"/>
<rect id="Rectangle 117" x="140" y="180" width="3" height="3" fill="#C4C4C4"/>
<rect id="Rectangle 118" x="160" y="180" width="3" height="3" fill="#C4C4C4"/>
<rect id="Rectangle 119" x="180" y="180" width="3" height="3" fill="#C4C4C4"/>
</g>
</svg>
